#!OML:ASF I:\Actors\actors\Patient Classification 1\Patient 1\Session 1\Subject1.ASF
:FULLY-SPECIFIED
:DEGREES
540
root 0.644177 17.5114 9.21665 11.0035 -1.69205 -9.89967
lowerback -0.202722 2.32427 5.31762
upperback -8.08006 3.46405 1.41367
thorax -8.16282 1.40035 -1.70632
lowerneck -15.2965 -3.97789 -2.50017
upperneck 27.571 -8.00597 9.79
head 12.1566 -2.62828 2.90102
rclavicle 1.56543e-014 -1.03368e-014
rhumerus 15.4768 59.1744 -59.6406
rradius 83.8701
rwrist 27.4731
rhand -1.93699 -50.2332
rfingers 7.12502
rthumb 23.7338 -78.7877
lclavicle 1.56543e-014 -1.03368e-014
lhumerus 9.57651 -61.3204 51.2567
lradius 76.9557
lwrist 40.7563
lhand -35.0701 7.9788
lfingers 7.12502
lthumb -8.21245 37.7992
rfemur -5.77258 25.9611 25.4969
rtibia 0.997837
rfoot -10.8671 -25.4422
rtoes 1.77541
lfemur 6.12912 -52.9965 -12.044
ltibia -5.04031
lfoot -33.0983 59.1924
ltoes 18.1585
541
root 0.645336 17.5108 9.21808 10.9932 -1.92058 -9.85291
lowerback -0.246357 2.41168 5.27647
upperback -8.11575 3.57586 1.38133
thorax -8.1689 1.45649 -1.72288
lowerneck -15.1909 -4.03242 -2.56939
upperneck 27.5342 -8.04618 9.74145
head 12.123 -2.66449 2.88848
rclavicle 1.70458e-014 -5.1684e-014
rhumerus 15.0766 58.5434 -60.3324
rradius 83.9114
rwrist 27.7711
rhand 0.276086 -50.3288
rfingers 7.12502
rthumb 25.8548 -78.5913
lclavicle 1.70458e-014 -5.1684e-014
lhumerus 7.38038 -61.7356 52.6387
lradius 78.5576
lwrist 41.5568
lhand -35.73 8.29808
lfingers 7.12502
lthumb -8.84925 38.0925
rfemur -5.79495 25.9643 25.4163
rtibia 1.04233
rfoot -10.8681 -25.2058
rtoes 1.95869
lfemur 6.22824 -52.8352 -12.217
ltibia -5.01509
lfoot -33.1834 59.1927
ltoes 18.2575
542
root 0.647448 17.51 9.21952 10.9721 -2.15508 -9.89849
lowerback -0.301245 2.506 5.3509
upperback -8.13169 3.70078 1.36048
thorax -8.14109 1.51271 -1.79081
lowerneck -15.0236 -4.05746 -2.63744
upperneck 27.4014 -8.08306 9.85677
head 12.0479 -2.68373 2.93723
rclavicle -4.82053e-015 1.51076e-014
rhumerus 14.742 57.864 -61.0548
rradius 83.6888
rwrist 27.7734
rhand 2.17617 -50.0146
rfingers 7.12502
rthumb 27.6731 -77.9989
lclavicle -4.82053e-015 1.51076e-014
lhumerus 5.33354 -62.2005 53.8523
lradius 80.2206
lwrist 42.3902
lhand -37.2445 8.34236
lfingers 7.12502
lthumb -10.3105 38.0696
rfemur -5.81558 25.9509 25.4465
rtibia 1.11449
rfoot -10.8717 -24.9374
rtoes 2.01843
lfemur 6.33545 -52.5552 -12.2766
ltibia -5.02235
lfoot -33.1019 59.1613
ltoes 18.2896
543
root 0.651177 17.5076 9.22189 10.9493 -2.41236 -9.97618
lowerback -0.404259 2.60895 5.47763
upperback -8.13649 3.83453 1.33267
thorax -8.06873 1.57092 -1.89229
lowerneck -14.8922 -4.07358 -2.63887
upperneck 27.3407 -8.12075 9.92848
head 12.0039 -2.6983 2.95912
rclavicle -1.80894e-014 1.43125e-014
rhumerus 14.7413 57.308 -61.5258
rradius 83.2967
rwrist 27.4125
rhand 4.12519 -49.6437
rfingers 7.12502
rthumb 29.5352 -77.3141
lclavicle -1.80894e-014 1.43125e-014
lhumerus 3.46572 -62.768 54.8567
lradius 81.8377
lwrist 42.3828
lhand -39.3397 8.30534
lfingers 7.12502
lthumb -12.3312 37.9217
rfemur -5.81856 25.9527 25.5105
rtibia 1.15368
rfoot -10.8093 -24.6617
rtoes 1.88487
lfemur 6.52515 -52.3396 -12.3677
ltibia -5.05074
lfoot -33.46 59.1403
ltoes 18.6068
544
root 0.655986 17.5058 9.22343 10.9304 -2.61763 -9.97774
lowerback -0.498048 2.68625 5.56434
upperback -8.15505 3.93205 1.2856
thorax -8.01955 1.61242 -1.99026
lowerneck -14.8453 -4.10491 -2.71599
upperneck 27.412 -8.17823 10.0089
head 12.0348 -2.72151 2.99672
rclavicle 9.0447e-015 2.54444e-014
rhumerus 14.9584 56.8787 -61.7901
rradius 82.7485
rwrist 27.1353
rhand 6.12155 -49.2529
rfingers 7.12502
rthumb 31.4391 -76.5697
lclavicle 9.0447e-015 2.54444e-014
lhumerus 1.76559 -63.2856 55.7883
lradius 83.2214
lwrist 41.3756
lhand -41.409 8.18596
lfingers 7.12502
lthumb -14.3257 37.6717
rfemur -5.81238 25.9239 25.4726
rtibia 1.14782
rfoot -10.8081 -24.3868
rtoes 2.12044
lfemur 6.66804 -52.204 -12.5238
ltibia -5.04308
lfoot -33.8129 59.102
ltoes 18.7681
545
root 0.659853 17.505 9.22309 10.9108 -2.77593 -9.97486
lowerback -0.543988 2.76017 5.66326
upperback -8.19016 4.02986 1.2348
thorax -8.01527 1.65142 -2.10168
lowerneck -14.8218 -4.16036 -2.88778
upperneck 27.5086 -8.27548 10.179
head 12.0933 -2.75977 3.07931
rclavicle 5.76476e-015 3.02153e-014
rhumerus 15.206 56.5198 -61.99
rradius 82.0908
rwrist 27.0161
rhand 7.96089 -48.8195
rfingers 7.12502
rthumb 33.1898 -75.7794
lclavicle 5.76476e-015 3.02153e-014
lhumerus 0.365193 -63.7839 56.5361
lradius 84.3742
lwrist 40.3256
lhand -43.1907 7.23475
lfingers 7.12502
lthumb -16.042 36.5906
rfemur -5.81527 25.8074 25.4329
rtibia 1.15273
rfoot -10.78 -24.111
rtoes 2.20655
lfemur 6.76777 -52.1115 -12.6425
ltibia -5.03967
lfoot -33.7787 59.1517
ltoes 18.5571
546
root 0.661712 17.5048 9.22223 10.8855 -2.94984 -9.95421
lowerback -0.577258 2.85412 5.71278
upperback -8.22698 4.15354 1.18075
thorax -8.02027 1.70623 -2.19124
lowerneck -14.8034 -4.22182 -3.01241
upperneck 27.6134 -8.37741 10.2898
head 12.1516 -2.80194 3.13071
rclavicle 1.53064e-014 8.74653e-015
rhumerus 15.6149 56.295 -62.0076
rradius 81.3707
rwrist 26.3369
rhand 9.43169 -48.7446
rfingers 7.12502
rthumb 34.5871 -75.3961
lclavicle 1.53064e-014 8.74653e-015
lhumerus -0.824054 -64.2557 57.1976
lradius 85.4078
lwrist 40.0186
lhand -44.7689 5.66894
lfingers 7.12502
lthumb -17.5612 34.8958
rfemur -5.81342 25.7544 25.3877
rtibia 1.15694
rfoot -10.6485 -23.9285
rtoes 1.88315
lfemur 6.95965 -52.1957 -12.8556
ltibia -5.04743
lfoot -34.0924 59.3375
ltoes 18.7206
547
root 0.661691 17.5049 9.2208 10.869 -3.12997 -9.88485
lowerback -0.622553 2.93621 5.64791
upperback -8.25941 4.25656 1.14102
thorax -8.02214 1.7596 -2.20074
lowerneck -14.8135 -4.25893 -3.04318
upperneck 27.7322 -8.43814 10.2919
head 12.2079 -2.82772 3.13067
rclavicle -2.5345e-015 7.95139e-015
rhumerus 16.1479 56.1968 -61.9203
rradius 80.5082
rwrist 24.9773
rhand 10.5127 -48.9522
rfingers 7.12502
rthumb 35.6125 -75.363
lclavicle -2.5345e-015 7.95139e-015
lhumerus -1.85793 -64.5642 57.8268
lradius 86.3705
lwrist 40.3836
lhand -46.2344 4.17422
lfingers 7.12502
lthumb -18.9711 33.269
rfemur -5.81418 25.8081 25.2941
rtibia 1.1529
rfoot -10.5849 -23.8142
rtoes 1.72879
lfemur 7.15865 -52.3617 -13.1399
ltibia -5.01313
lfoot -34.807 59.475
ltoes 19.2917
548
root 0.660772 17.505 9.21872 10.8495 -3.27781 -9.86008
lowerback -0.666007 2.99097 5.60207
upperback -8.28729 4.32556 1.13178
thorax -8.0241 1.79612 -2.18689
lowerneck -14.7846 -4.27476 -2.98972
upperneck 27.7997 -8.46636 10.2332
head 12.2256 -2.84066 3.09674
rclavicle -2.96189e-014 -3.97569e-015
rhumerus 16.8025 56.285 -61.6763
rradius 79.574
rwrist 23.5971
rhand 11.1368 -48.9387
rfingers 7.12502
rthumb 36.2037 -75.2049
lclavicle -2.96189e-014 -3.97569e-015
lhumerus -2.68072 -64.7431 58.3001
lradius 87.2713
lwrist 40.8805
lhand -47.6938 2.38365
lfingers 7.12502
lthumb -20.3742 31.3349
rfemur -5.81384 25.8465 25.2616
rtibia 1.16527
rfoot -10.5582 -23.6954
rtoes 1.70205
lfemur 7.28946 -52.4068 -13.3023
ltibia -4.97765
lfoot -35.1781 59.5217
ltoes 19.5225
549
root 0.66051 17.5047 9.217 10.8195 -3.37198 -9.86744
lowerback -0.739334 3.03452 5.61713
upperback -8.29975 4.37892 1.12497
thorax -7.98952 1.82221 -2.20086
lowerneck -14.7218 -4.28481 -2.92772
upperneck 27.8184 -8.48588 10.1857
head 12.2162 -2.85015 3.06615
rclavicle 2.13694e-014 -2.78299e-014
rhumerus 17.4429 56.467 -61.3641
rradius 78.6889
rwrist 22.9933
rhand 12.1216 -49.3796
rfingers 7.12502
rthumb 37.1358 -75.4088
lclavicle 2.13694e-014 -2.78299e-014
lhumerus -3.33156 -64.8698 58.6654
lradius 88.083
lwrist 40.5365
lhand -48.9016 0.0199135
lfingers 7.12502
lthumb -21.5346 28.8427
rfemur -5.80433 25.849 25.2639
rtibia 1.16544
rfoot -10.5066 -23.596
rtoes 1.85196
lfemur 7.35276 -52.3398 -13.3629
ltibia -4.95608
lfoot -35.0943 59.5495
ltoes 19.3113
550
root 0.660136 17.5042 9.21427 10.7875 -3.42154 -9.86724
lowerback -0.813425 3.05842 5.62725
upperback -8.31413 4.40575 1.11826
thorax -7.9589 1.83539 -2.21064
lowerneck -14.667 -4.28655 -2.93865
upperneck 27.8639 -8.49746 10.207
head 12.2256 -2.85417 3.07653
rclavicle 3.38928e-014 3.18055e-015
rhumerus 17.9715 56.6662 -61.1617
rradius 77.8281
rwrist 23.0805
rhand 13.5345 -50.4514
rfingers 7.12502
rthumb 38.4705 -76.121
lclavicle 3.38928e-014 3.18055e-015
lhumerus -3.79492 -64.9281 58.9353
lradius 88.7956
lwrist 38.913
lhand -49.5129 -2.03455
lfingers 7.12502
lthumb -22.1215 26.7199
rfemur -5.79598 25.813 25.2609
rtibia 1.16724
rfoot -10.473 -23.4992
rtoes 1.93044
lfemur 7.36379 -52.2517 -13.385
ltibia -4.92007
lfoot -35.3185 59.4405
ltoes 19.4373
